<svg width="61" height="60" viewBox="0 0 61 60" fill="none" xmlns="http://www.w3.org/2000/svg">
<g id="Property 1=Accion">
<path id="Vector" d="M6.40078 4.32667C6.13098 4.61302 6.10752 4.73016 6.10752 5.95366V7.25526H3.59724C1.01658 7.25526 0.453528 7.34637 0.242383 7.77589C0.172002 7.90606 0.125081 8.94733 0.125081 10.0927V12.1623L0.840627 13.2556C1.76732 14.6744 1.90808 15.0648 1.91981 16.1712C1.91981 17.2255 1.77905 17.616 0.770245 19.1649L0.125081 20.1671V22.2496C0.125081 23.382 0.172002 24.4363 0.242383 24.5665C0.441798 24.983 1.01658 25.0871 3.29225 25.0871C5.72042 25.0871 6.00195 25.1522 6.76441 25.8941C7.3392 26.4538 7.63245 27.1827 7.63245 28.0938C7.63245 28.8097 7.47996 29.1871 3.98434 37.0227C0.559101 44.7412 0.336225 45.2879 0.160271 46.3812C-0.179906 48.5158 0.277574 50.7546 1.43887 52.6809C2.20134 53.9565 3.63243 55.0629 5.34505 55.7006L6.16617 56H13.2043H20.2425L20.9463 55.6356C22.7059 54.7244 23.8202 52.6419 23.6677 50.5723C23.5739 49.3228 23.1985 48.5028 22.0724 47.0971C21.3099 46.1339 21.1223 45.8085 21.1223 45.4831C21.1223 45.2488 21.6853 43.0621 22.3774 40.6151L23.6443 36.1767L27.0461 36.1246C30.354 36.0726 30.4713 36.0596 31.3863 35.7211C32.6883 35.2396 33.7088 34.5497 34.6707 33.4824C35.6326 32.4021 36.266 31.2697 36.6766 29.8379C36.9229 28.9919 36.9933 28.4582 37.0402 26.9354L37.1106 25.0871H40.0667C43.398 25.0871 43.6913 25.035 43.9494 24.3582L44.1136 23.9157H50.2603C56.2896 23.9157 56.4069 23.9157 56.7119 23.6423L57.0169 23.382V21.4296V19.4903H58.1313C59.4568 19.4903 59.797 19.3471 59.9612 18.7223C60.0316 18.4229 60.0668 16.4315 60.0433 13.0864L60.0081 7.91907L59.7383 7.6197C59.5037 7.35938 59.3395 7.32034 58.2486 7.28129L57.0169 7.22923V5.9016C57.0169 3.88412 57.2632 4.00127 53.099 4.00127C51.1283 4.00127 49.6386 4.05333 49.5095 4.13143C49.1928 4.32667 49.0403 4.96445 49.0403 6.16191V7.25526H44.0549H39.0696V11.3553V15.4683L38.7763 15.7807L38.4948 16.1061H31.0578H23.6208L23.3745 15.8067C23.1164 15.5074 23.1164 15.4293 23.1164 11.3813V7.25526H18.6003H14.0841V6.08382C14.0841 4.84731 13.9199 4.23555 13.5562 4.07936C13.4507 4.04032 11.8554 4.00127 10.0254 4.00127H6.6823L6.40078 4.32667ZM12.09 6.73462V7.25526H10.0958H8.10166V6.73462V6.21398H10.0958H12.09V6.73462ZM55.0227 6.73462V7.25526H53.0286H51.0345V6.73462V6.21398H53.0286H55.0227V6.73462ZM19.785 14.3229C20.1487 14.8045 20.1487 15.3772 19.7733 15.7807L19.4918 16.1061H13.0753H6.64711L6.37731 15.8198C5.83772 15.2601 6.13098 14.1928 6.86999 13.9845C6.99902 13.9455 9.8964 13.9324 13.2982 13.9324L19.5035 13.9585L19.785 14.3229ZM19.785 18.7483C20.1487 19.2169 20.1487 19.7636 19.785 20.2322L19.5035 20.5966L13.5328 20.6357C10.26 20.6617 7.35093 20.6357 7.0694 20.5966C6.43597 20.4925 6.10752 20.115 6.10752 19.4903C6.10752 18.9045 6.2952 18.6052 6.75268 18.449C6.9521 18.3839 9.81428 18.3448 13.2982 18.3579L19.5035 18.3839L19.785 18.7483ZM55.0227 20.5966V21.703H49.5564H44.0784L44.1488 21.2474C44.2426 20.5966 44.6532 20.0239 45.2162 19.7376C45.662 19.5163 46.0608 19.4903 50.3658 19.4903H55.0227V20.5966ZM12.524 25.1782C12.4888 25.2433 10.6119 30.1113 8.33627 36.0205C3.79666 47.813 3.85531 47.6047 4.28933 49.0234C4.57085 49.9866 5.46235 51.0279 6.2952 51.3663C6.88172 51.6136 7.19843 51.6397 10.0254 51.6397C12.0782 51.6397 13.2395 51.5876 13.5093 51.4835C14.1779 51.2362 14.7879 50.7155 15.0929 50.1298C15.2571 49.8174 17.0401 44.0774 19.0577 37.3612L22.7293 25.1522L23.6912 25.1131C24.5827 25.0741 24.6531 25.1001 24.5944 25.3084C24.5592 25.4385 24.1487 26.9224 23.6912 28.6014C23.2337 30.2805 22.0138 34.6408 20.9815 38.2983C18.6589 46.5374 18.6824 46.0037 20.4771 48.3466C20.958 48.9714 21.4624 49.7263 21.5915 50.0257C22.2132 51.4314 21.4624 53.3187 20.0783 53.8394C19.5269 54.0346 7.31574 54.0476 6.43597 53.8394C5.33332 53.579 4.44182 53.0193 3.64416 52.0692C2.16615 50.312 1.70867 48.1514 2.36556 45.9257C2.44767 45.6653 3.46821 43.3225 4.64123 40.7063C8.35973 32.4151 9.49757 29.7468 9.6266 28.9919C9.79082 28.0417 9.59141 26.7271 9.14566 25.79L8.81721 25.0871H10.6941C11.7263 25.0871 12.5474 25.1262 12.524 25.1782ZM35.0461 26.8052C35.0109 28.0808 34.9288 28.7316 34.7528 29.2782C34.0842 31.3478 32.7939 32.7795 30.8584 33.5865C30.2836 33.8208 29.8848 33.8599 27.2572 33.9119C25.6267 33.938 24.2894 33.9249 24.2894 33.8859C24.2894 33.8208 25.873 28.1719 25.9903 27.8335C26.0372 27.7033 26.1897 27.8595 26.4595 28.3021C26.9405 29.096 27.6208 29.7338 28.571 30.2675C29.615 30.8532 31.0461 31.3738 31.3628 31.2827C31.7382 31.1786 32.0901 30.4367 31.9845 29.9811C31.8789 29.4995 31.5974 29.2652 30.5417 28.7967C28.8525 28.0417 28.0314 27.2478 27.5856 25.9462C27.4566 25.5427 27.3393 25.1782 27.3393 25.1522C27.3393 25.1131 29.0871 25.0871 31.222 25.0871H35.1165L35.0461 26.8052ZM16.1604 30.9833C17.0049 31.6211 17.2865 33.0659 16.7586 33.938C16.3363 34.6148 15.9258 34.8881 15.2102 34.9532C12.9345 35.1615 12.2307 31.6081 14.3774 30.7491C14.9639 30.5017 15.656 30.6059 16.1604 30.9833ZM12.09 42.0339C12.6765 42.4764 12.9345 42.958 13.0049 43.6869C13.0753 44.4939 12.8993 45.0015 12.3715 45.5222C11.6559 46.212 10.6119 46.2901 9.87294 45.6914C9.38026 45.3009 9.01663 44.3768 9.07528 43.726C9.14566 43.0361 9.60314 42.2421 10.1075 41.9688C10.6941 41.6434 11.6207 41.6825 12.09 42.0339Z" fill="white"/>
<path id="Vector_2" d="M25.113 10.5735V13.8926H31.0955H37.0779V10.5735V7.25444H31.0955H25.113V10.5735Z" fill="white"/>
</g>
</svg>
