<?xml version="1.0" standalone="no"?>
<!DOCTYPE svg PUBLIC "-//W3C//DTD SVG 20010904//EN"
 "http://www.w3.org/TR/2001/REC-SVG-20010904/DTD/svg10.dtd">
<svg version="1.0" xmlns="http://www.w3.org/2000/svg"
 width="920.000000pt" height="512.000000pt" viewBox="0 0 920.000000 512.000000"
 preserveAspectRatio="xMidYMid meet">
<metadata>
Created by potrace 1.16, written by Peter Selinger 2001-2019
</metadata>
<g transform="translate(0.000000,512.000000) scale(0.100000,-0.100000)"
fill="#000000" stroke="none">
<path d="M4410 5114 c-532 -48 -1019 -241 -1415 -561 -515 -416 -841 -1000
-937 -1678 -19 -137 -16 -523 6 -665 61 -401 192 -746 403 -1064 185 -278 441
-534 719 -718 318 -212 662 -343 1064 -405 161 -24 539 -24 700 0 292 45 534
120 780 243 268 133 460 271 668 477 403 398 650 888 739 1467 24 161 24 539
0 700 -62 399 -190 739 -401 1060 -179 273 -454 547 -726 726 -319 209 -664
340 -1050 399 -101 15 -455 27 -550 19z m371 -594 c620 -62 1167 -400 1491
-923 115 -184 208 -414 251 -622 22 -103 23 -115 8 -115 -52 0 -275 24 -386
41 -285 43 -452 97 -878 288 -226 101 -339 133 -537 151 -269 25 -483 -15
-770 -142 -74 -33 -180 -80 -235 -105 -299 -132 -580 -197 -987 -228 l-86 -7
23 109 c79 373 263 711 534 984 413 413 999 626 1572 569z m-8 -1519 c116 -46
221 -150 269 -269 19 -48 23 -75 23 -172 0 -97 -4 -124 -23 -173 -48 -117
-152 -221 -270 -269 -48 -19 -75 -23 -172 -23 -97 0 -124 4 -172 23 -119 48
-223 153 -269 269 -34 86 -38 231 -10 316 49 147 146 247 296 304 82 31 241
29 328 -6z m-1033 -850 c84 -22 189 -82 259 -147 116 -107 180 -225 201 -371
11 -79 14 -1003 3 -1003 -21 0 -199 52 -283 83 -531 193 -974 636 -1167 1167
-31 85 -83 262 -83 283 0 14 1018 2 1070 -12z m2790 11 c0 -19 -61 -222 -89
-298 -143 -389 -441 -751 -800 -974 -104 -64 -245 -135 -345 -171 -77 -29
-279 -89 -298 -89 -6 0 -8 217 -6 513 l3 512 27 74 c79 216 291 400 496 430
75 11 1012 13 1012 3z"/>
</g>
</svg>
