<?xml version="1.0" standalone="no"?>
<!DOCTYPE svg PUBLIC "-//W3C//DTD SVG 20010904//EN"
 "http://www.w3.org/TR/2001/REC-SVG-20010904/DTD/svg10.dtd">
<svg version="1.0" xmlns="http://www.w3.org/2000/svg"
 width="920.000000pt" height="512.000000pt" viewBox="0 0 920.000000 512.000000"
 preserveAspectRatio="xMidYMid meet">
<metadata>
Created by potrace 1.16, written by Peter Selinger 2001-2019
</metadata>
<g transform="translate(0.000000,512.000000) scale(0.100000,-0.100000)"
fill="#000000" stroke="none">
<path d="M4418 5110 c-319 -38 -654 -199 -883 -425 -44 -44 -109 -117 -144
-162 l-64 -83 -91 0 c-231 0 -453 -69 -664 -207 -79 -51 -259 -234 -314 -318
-96 -149 -150 -284 -184 -461 -22 -119 -15 -364 15 -474 60 -228 144 -380 295
-539 172 -180 372 -293 609 -346 l77 -17 0 -817 c0 -452 5 -845 10 -881 26
-181 173 -337 349 -370 72 -13 2253 -14 2335 0 179 29 330 186 356 370 5 36
10 429 10 881 l0 817 78 17 c393 87 717 367 858 742 50 132 65 211 71 373 4
122 2 174 -11 245 -32 170 -90 315 -184 460 -55 84 -235 267 -314 318 -211
138 -433 207 -664 207 l-91 0 -63 83 c-328 424 -860 649 -1392 587z m365 -345
c220 -33 426 -130 603 -283 72 -62 157 -163 236 -281 71 -106 72 -107 261
-103 182 4 268 -9 388 -58 241 -98 429 -306 501 -557 19 -66 23 -102 23 -233
0 -180 -15 -245 -92 -391 -105 -200 -297 -357 -513 -419 -150 -43 -391 -36
-514 15 l-37 16 73 80 c40 44 101 119 135 167 113 158 226 413 226 512 1 123
-122 202 -236 152 -56 -25 -70 -45 -118 -178 -67 -184 -149 -315 -284 -450
-142 -143 -344 -258 -545 -311 -96 -25 -121 -27 -285 -28 -117 0 -199 5 -235
13 -249 61 -440 163 -600 322 -139 137 -221 267 -289 454 -48 133 -62 153
-118 178 -114 50 -237 -29 -236 -152 0 -99 113 -354 226 -512 34 -48 95 -123
135 -167 l73 -80 -37 -16 c-123 -51 -364 -58 -514 -15 -275 79 -501 307 -582
585 -19 68 -23 103 -23 230 0 168 17 250 76 368 69 137 201 283 322 355 156
94 288 125 514 120 189 -4 190 -3 261 103 75 112 162 216 225 272 279 244 622
346 980 292z m-831 -2551 c378 -190 918 -190 1296 0 l70 35 109 -54 c99 -50
231 -94 326 -110 l37 -6 -2 -840 -3 -841 -33 -29 -32 -29 -1120 0 -1120 0 -32
29 -33 29 -3 841 -2 840 37 6 c95 16 227 60 323 110 58 29 106 54 108 54 1 1
35 -15 74 -35z"/>
</g>
</svg>
