<?xml version="1.0" standalone="no"?>
<!DOCTYPE svg PUBLIC "-//W3C//DTD SVG 20010904//EN"
 "http://www.w3.org/TR/2001/REC-SVG-20010904/DTD/svg10.dtd">
<svg version="1.0" xmlns="http://www.w3.org/2000/svg"
 width="920.000000pt" height="512.000000pt" viewBox="0 0 920.000000 512.000000"
 preserveAspectRatio="xMidYMid meet">
<metadata>
Created by potrace 1.16, written by Peter Selinger 2001-2019
</metadata>
<g transform="translate(0.000000,512.000000) scale(0.100000,-0.100000)"
fill="#000000" stroke="none">
<path d="M4559 5101 c-15 -11 -36 -47 -48 -79 -67 -178 -301 -489 -527 -699
-153 -143 -254 -218 -540 -403 -405 -263 -526 -353 -674 -503 -330 -331 -455
-677 -410 -1137 52 -527 284 -910 665 -1096 412 -200 905 -98 1271 263 l95 93
-7 -38 c-3 -20 -26 -98 -50 -172 -180 -555 -582 -944 -1169 -1134 -82 -27
-158 -56 -168 -66 -29 -27 -25 -79 7 -107 l27 -23 1564 0 c1148 0 1571 3 1589
11 45 21 54 95 15 125 -8 6 -52 26 -99 44 -266 103 -520 271 -722 477 -176
179 -284 329 -386 534 -49 101 -132 305 -132 326 0 3 31 -24 70 -60 183 -173
424 -292 661 -327 132 -19 331 -8 444 24 461 134 747 532 805 1121 52 526
-124 911 -585 1279 -60 48 -238 173 -395 278 -157 105 -332 227 -389 272 -322
251 -678 671 -778 919 -29 74 -39 85 -78 93 -22 4 -38 0 -56 -15z"/>
</g>
</svg>
