<?xml version="1.0" standalone="no"?>
<!DOCTYPE svg PUBLIC "-//W3C//DTD SVG 20010904//EN"
 "http://www.w3.org/TR/2001/REC-SVG-20010904/DTD/svg10.dtd">
<svg version="1.0" xmlns="http://www.w3.org/2000/svg"
 width="900.000000pt" height="600.000000pt" viewBox="0 0 900.000000 600.000000"
 preserveAspectRatio="xMidYMid meet">
<metadata>
Created by potrace 1.16, written by Peter Selinger 2001-2019
</metadata>
<g transform="translate(0.000000,600.000000) scale(0.100000,-0.100000)"
fill="#000000" stroke="none">
<path d="M4385 5350 c-441 -31 -859 -188 -1220 -458 -119 -89 -357 -324 -443
-439 -246 -325 -403 -705 -458 -1108 -22 -160 -22 -431 1 -600 46 -349 175
-694 371 -986 97 -146 176 -240 320 -379 353 -342 783 -552 1279 -626 153 -22
462 -22 620 1 249 36 484 109 706 220 236 118 404 240 599 435 778 776 898
2007 285 2925 -458 686 -1242 1072 -2060 1015z m445 -95 c138 -18 234 -39 353
-75 89 -28 105 -37 189 -108 121 -102 242 -222 301 -300 26 -35 47 -67 47 -71
0 -4 -42 -27 -92 -51 -51 -25 -169 -96 -263 -158 l-169 -114 -71 31 c-166 72
-302 114 -505 155 -107 22 -412 66 -454 66 -8 0 -40 42 -72 92 -71 111 -160
234 -217 295 -40 44 -41 45 -22 60 38 29 200 104 269 124 184 55 265 68 436
68 91 0 212 -6 270 -14z m-860 -68 c-58 -24 -121 -61 -180 -106 -19 -15 -69
-40 -110 -55 -103 -39 -376 -173 -488 -240 -109 -65 -110 -58 -4 22 222 168
417 271 677 358 141 47 193 57 105 21z m1782 -274 c136 -91 235 -174 356 -295
189 -191 339 -405 439 -629 l30 -65 -36 18 c-20 10 -53 21 -73 25 -21 3 -38 8
-38 12 0 14 -153 207 -246 312 -54 60 -166 174 -249 252 -86 81 -171 171 -199
212 -27 38 -111 132 -187 208 l-138 137 127 -65 c71 -35 167 -90 214 -122z
m-2823 -384 c-74 -148 -149 -416 -149 -532 0 -23 -17 -47 -75 -109 -136 -145
-264 -365 -340 -588 l-36 -105 6 65 c47 467 239 909 550 1263 42 48 78 87 81
87 2 0 -14 -37 -37 -81z m1471 30 c273 -37 530 -106 702 -186 42 -19 80 -43
83 -52 4 -9 49 -133 100 -276 51 -143 116 -321 144 -396 28 -74 51 -141 51
-148 0 -15 -107 -152 -219 -281 -136 -156 -240 -266 -367 -385 l-125 -118
-127 23 c-70 12 -282 48 -471 81 -192 32 -350 64 -357 71 -25 26 -134 234
-178 337 -92 220 -136 409 -136 580 l0 97 55 67 c85 103 341 371 477 501 l123
116 50 -5 c28 -4 115 -15 195 -26z m-1390 -649 c69 -6 197 -14 285 -18 120 -5
159 -10 157 -20 -7 -37 23 -269 48 -367 43 -173 132 -386 231 -557 22 -36 39
-71 39 -76 0 -6 -23 -43 -51 -84 -112 -162 -227 -371 -320 -582 l-43 -99 -180
6 c-158 4 -193 8 -271 32 -95 28 -204 82 -260 128 -38 31 -141 230 -176 337
-51 161 -109 433 -109 510 0 52 73 259 135 385 66 133 126 225 224 340 l74 87
46 -5 c25 -3 102 -11 171 -17z m3498 0 c86 -39 98 -53 131 -153 79 -237 111
-446 111 -714 0 -255 -30 -457 -101 -680 -17 -54 -33 -99 -34 -101 -2 -2 -21
8 -44 22 -22 14 -59 33 -81 42 -35 14 -40 20 -40 48 0 62 -21 314 -36 436 -20
165 -49 294 -90 409 l-33 93 29 87 c24 73 63 241 110 474 6 31 17 57 23 57 7
0 31 -9 55 -20z m-588 -550 c107 -27 226 -55 264 -62 67 -12 69 -13 87 -52 66
-149 112 -426 134 -807 l7 -116 -113 -154 c-213 -291 -368 -463 -473 -524 -48
-28 -51 -29 -205 -28 -183 0 -305 19 -460 70 -99 33 -221 87 -221 98 0 3 -11
116 -25 251 -26 252 -60 465 -94 587 l-19 68 185 182 c183 180 372 389 473
525 l53 70 106 -29 c58 -16 194 -52 301 -79z m-3146 -1206 c128 -59 217 -76
415 -79 l173 -2 141 -184 c155 -202 314 -369 444 -463 79 -58 80 -60 72 -90
-16 -55 -21 -199 -10 -301 8 -76 7 -101 -2 -107 -7 -4 -40 -8 -75 -8 -76 0
-196 42 -377 132 -345 172 -632 425 -854 754 -51 76 -64 103 -72 155 -10 58
-5 191 8 246 l5 23 29 -21 c16 -11 62 -36 103 -55z m2237 -454 c101 -45 258
-92 375 -111 43 -7 147 -13 231 -14 l151 0 6 -35 c9 -55 7 -192 -4 -250 -23
-122 -23 -121 -112 -172 -274 -156 -559 -252 -858 -288 -110 -13 -400 -13
-515 1 -92 10 -176 42 -208 77 -34 37 -45 314 -17 422 11 41 -12 30 290 136
225 79 470 192 530 243 19 17 37 30 39 31 2 0 43 -18 92 -40z"/>
</g>
</svg>
