<?xml version="1.0" standalone="no"?>
<!DOCTYPE svg PUBLIC "-//W3C//DTD SVG 20010904//EN"
 "http://www.w3.org/TR/2001/REC-SVG-20010904/DTD/svg10.dtd">
<svg version="1.0" xmlns="http://www.w3.org/2000/svg"
 width="260.000000pt" height="260.000000pt" viewBox="0 0 260.000000 260.000000"
 preserveAspectRatio="xMidYMid meet">
<metadata>
Created by potrace 1.16, written by Peter Selinger 2001-2019
</metadata>
<g transform="translate(0.000000,260.000000) scale(0.100000,-0.100000)"
fill="#000000" stroke="none">
<path d="M810 2124 l0 -216 29 -29 29 -29 432 0 432 0 29 29 29 29 0 216 0
216 -90 0 -90 0 0 -80 0 -80 -75 0 -75 0 0 80 0 80 -160 0 -160 0 0 -80 0 -80
-75 0 -75 0 0 80 0 80 -90 0 -90 0 0 -216z"/>
<path d="M876 1804 c-19 -18 -21 -55 -4 -72 17 -17 839 -17 856 0 17 17 15 54
-4 72 -13 14 -66 16 -424 16 -358 0 -411 -2 -424 -16z"/>
<path d="M990 1623 c-1 -147 -21 -486 -35 -599 -21 -156 -46 -263 -90 -370
-19 -48 -35 -92 -35 -96 0 -4 212 -8 470 -8 259 0 470 4 470 8 0 4 -16 48 -36
98 -72 178 -107 417 -120 822 l-7 212 -308 0 -309 0 0 -67z"/>
<path d="M746 504 c-19 -18 -21 -55 -4 -72 17 -17 1099 -17 1116 0 17 17 15
54 -4 72 -14 14 -78 16 -554 16 -476 0 -540 -2 -554 -16z"/>
<path d="M651 376 c-57 -31 -67 -107 -22 -158 l29 -33 642 0 642 0 29 33 c46
51 33 133 -26 160 -40 18 -1261 16 -1294 -2z"/>
</g>
</svg>
