<?xml version="1.0" standalone="no"?>
<!DOCTYPE svg PUBLIC "-//W3C//DTD SVG 20010904//EN"
 "http://www.w3.org/TR/2001/REC-SVG-20010904/DTD/svg10.dtd">
<svg version="1.0" xmlns="http://www.w3.org/2000/svg"
 width="920.000000pt" height="512.000000pt" viewBox="0 0 920.000000 512.000000"
 preserveAspectRatio="xMidYMid meet">
<metadata>
Created by potrace 1.16, written by Peter Selinger 2001-2019
</metadata>
<g transform="translate(0.000000,512.000000) scale(0.100000,-0.100000)"
fill="#000000" stroke="none">
<path d="M5535 4999 c-128 -13 -244 -65 -342 -154 l-59 -53 -60 28 c-161 73
-295 102 -474 102 -179 0 -313 -29 -474 -102 l-60 -28 -59 53 c-68 62 -170
118 -253 140 -75 19 -223 19 -298 0 -200 -52 -369 -222 -420 -421 -20 -77 -20
-221 -1 -294 51 -191 196 -348 379 -410 l51 -17 8 -64 c22 -192 30 -238 54
-312 27 -87 86 -213 128 -275 l26 -37 -43 -37 -43 -37 -495 -3 -495 -3 -67
-33 c-358 -176 -388 -774 -50 -991 80 -51 141 -61 380 -61 l214 0 -7 -100 -8
-100 34 0 c71 0 224 -40 306 -79 103 -50 161 -89 236 -159 l57 -55 0 46 c0
136 47 323 116 463 147 296 405 491 692 523 317 35 613 -113 807 -403 103
-156 168 -346 181 -531 l7 -94 59 54 c78 73 133 110 231 155 90 42 190 69 281
78 l59 5 -7 99 -7 98 213 0 c239 0 300 10 380 61 183 118 274 368 223 614 -19
89 -45 151 -96 227 -47 69 -95 109 -179 151 l-65 32 -493 3 -494 3 -43 35 -42
36 43 71 c51 86 98 200 125 305 20 78 44 286 34 302 -3 5 19 16 47 26 246 80
408 301 408 556 0 166 -56 304 -170 418 -126 126 -297 187 -475 169z m-1820
-343 c28 -13 58 -32 68 -43 17 -20 16 -22 -26 -69 -84 -95 -164 -225 -202
-327 -10 -26 -22 -50 -26 -53 -14 -8 -82 32 -115 68 -46 48 -66 94 -72 165
-16 200 192 344 373 259z m1990 0 c103 -47 162 -148 153 -259 -6 -71 -26 -117
-72 -165 -33 -36 -101 -76 -115 -68 -4 3 -16 27 -26 53 -38 102 -118 232 -202
327 -42 47 -43 49 -26 69 58 65 197 86 288 43z m-1518 -347 c35 -13 80 -55
100 -93 34 -66 9 -165 -55 -214 -50 -38 -143 -43 -192 -10 -70 48 -102 127
-81 199 30 99 134 154 228 118z m968 -12 c73 -41 108 -123 86 -198 -53 -175
-300 -171 -339 6 -31 146 125 265 253 192z m-428 -236 c129 -66 120 -212 -17
-274 -94 -42 -228 -19 -294 51 -56 60 -42 161 29 208 76 50 202 57 282 15z
m-374 -308 c65 -67 122 -88 247 -88 88 0 113 4 156 23 54 24 122 88 146 135
l14 29 48 -46 c126 -123 128 -281 6 -407 -92 -93 -213 -139 -370 -139 -157 0
-278 46 -370 139 -122 126 -120 284 6 407 l48 46 14 -29 c8 -15 32 -47 55 -70z
m-1566 -914 c81 -39 143 -129 163 -238 46 -255 -173 -467 -378 -365 -192 96
-223 415 -55 564 80 70 175 84 270 39z m3800 16 c250 -74 279 -501 41 -619
-205 -102 -424 110 -378 365 22 121 103 224 199 253 60 19 77 19 138 1z"/>
<path d="M2990 1570 c-205 -26 -382 -167 -464 -369 -79 -195 -74 -369 19 -626
111 -306 201 -414 376 -451 122 -26 283 0 485 77 299 116 422 270 399 502 -12
129 -99 397 -166 515 -136 237 -406 384 -649 352z m346 -566 c113 -33 202
-124 224 -230 14 -67 7 -114 -29 -191 -103 -217 -421 -305 -617 -170 -234 162
-127 507 184 592 66 18 174 18 238 -1z"/>
<path d="M6095 1574 c-167 -20 -298 -85 -422 -212 -105 -106 -168 -230 -239
-474 -31 -105 -37 -138 -37 -228 -1 -143 20 -199 114 -291 164 -162 561 -289
768 -245 175 37 268 149 376 452 93 258 98 431 19 625 -72 178 -233 322 -399
357 -62 13 -141 20 -180 16z m2 -568 c79 -21 138 -53 196 -106 237 -216 104
-549 -219 -550 -184 0 -337 90 -408 239 -101 214 53 428 309 430 39 1 94 -6
122 -13z"/>
<path d="M4020 620 c0 -116 -32 -216 -102 -317 l-29 -42 28 -7 c15 -3 44 -10
63 -15 272 -67 956 -67 1240 1 19 4 48 11 63 14 l29 7 -25 32 c-67 88 -107
209 -107 325 l0 73 -72 -56 c-86 -68 -227 -138 -323 -162 -95 -23 -276 -22
-370 1 -98 25 -238 95 -323 161 l-72 56 0 -71z"/>
</g>
</svg>
