<?xml version="1.0" standalone="no"?>
<!DOCTYPE svg PUBLIC "-//W3C//DTD SVG 20010904//EN"
 "http://www.w3.org/TR/2001/REC-SVG-20010904/DTD/svg10.dtd">
<svg version="1.0" xmlns="http://www.w3.org/2000/svg"
 width="360.000000pt" height="265.000000pt" viewBox="0 0 360.000000 265.000000"
 preserveAspectRatio="xMidYMid meet">
<metadata>
Created by potrace 1.16, written by Peter Selinger 2001-2019
</metadata>
<g transform="translate(0.000000,265.000000) scale(0.100000,-0.100000)"
fill="#000000" stroke="none">
<path d="M1712 2604 c-102 -27 -163 -73 -198 -149 -26 -56 -30 -85 -11 -85 6
0 50 7 97 15 47 8 86 15 88 15 1 0 2 -31 2 -69 0 -79 4 -75 -95 -86 -112 -12
-105 -5 -105 -107 l0 -90 31 6 c17 3 42 6 54 6 12 0 43 16 68 35 86 66 144 89
222 89 50 0 84 -6 117 -21 l47 -21 23 46 c18 37 23 63 23 127 -1 70 -5 88 -32
141 -18 34 -51 77 -73 97 -63 53 -170 75 -258 51z"/>
<path d="M1792 2139 c-19 -5 -170 -113 -337 -239 l-304 -230 -7 46 c-5 36 -10
44 -23 39 -9 -4 -69 -26 -133 -50 -205 -76 -311 -144 -354 -226 -36 -70 -29
-182 17 -290 l20 -46 80 -7 c162 -13 311 -83 404 -189 59 -67 129 -208 157
-317 25 -101 53 -136 137 -174 131 -58 275 -76 625 -76 l241 0 -3 135 c-6 220
35 350 144 458 107 107 252 157 478 166 136 6 139 7 159 33 24 32 28 104 8
141 l-14 27 -191 1 c-357 3 -323 -1 -339 39 -11 28 -114 177 -147 214 -5 5
-84 -51 -176 -123 l-167 -131 -262 0 c-248 0 -264 -1 -288 -20 -14 -11 -31
-36 -37 -56 -10 -29 -15 -34 -33 -28 -36 11 -113 54 -151 86 -46 38 -102 118
-88 127 5 3 118 89 251 191 133 102 245 186 249 188 5 1 80 -99 168 -222 91
-129 164 -223 171 -221 7 2 85 59 173 125 105 79 158 125 153 133 -25 43 -275
371 -312 410 -25 27 -63 58 -85 69 -46 23 -136 32 -184 17z"/>
<path d="M640 1079 c-30 -5 -91 -27 -135 -48 -155 -76 -262 -225 -287 -396
-48 -336 251 -636 586 -587 259 38 450 257 450 517 0 322 -294 569 -614 514z
m200 -191 c51 -15 134 -74 164 -116 67 -97 87 -221 52 -320 -51 -145 -212
-246 -359 -227 -280 36 -403 374 -209 573 94 96 219 128 352 90z"/>
<path d="M2825 1084 c-11 -2 -45 -9 -75 -15 -84 -17 -180 -72 -248 -143 -201
-209 -200 -528 3 -731 236 -235 623 -193 807 89 103 159 108 378 12 542 -62
106 -176 198 -288 233 -63 19 -176 33 -211 25z m201 -217 c57 -29 122 -95 156
-159 20 -37 23 -58 23 -143 0 -86 -3 -106 -24 -145 -37 -70 -61 -98 -115 -135
-178 -122 -412 -55 -504 144 -38 80 -37 192 0 273 82 176 294 251 464 165z"/>
</g>
</svg>
