<?xml version="1.0" standalone="no"?>
<!DOCTYPE svg PUBLIC "-//W3C//DTD SVG 20010904//EN"
 "http://www.w3.org/TR/2001/REC-SVG-20010904/DTD/svg10.dtd">
<svg version="1.0" xmlns="http://www.w3.org/2000/svg"
 width="920.000000pt" height="512.000000pt" viewBox="0 0 920.000000 512.000000"
 preserveAspectRatio="xMidYMid meet">
<metadata>
Created by potrace 1.16, written by Peter Selinger 2001-2019
</metadata>
<g transform="translate(0.000000,512.000000) scale(0.100000,-0.100000)"
fill="#000000" stroke="none">
<path d="M2790 4114 c-87 -38 -107 -78 -125 -255 l-15 -140 -85 -81 c-91 -85
-157 -176 -200 -273 -31 -70 -65 -204 -65 -257 0 -21 -57 -338 -127 -705 -115
-603 -127 -679 -127 -778 0 -193 62 -335 204 -461 129 -114 274 -168 460 -168
91 0 116 4 190 30 108 38 183 88 261 172 66 72 110 156 264 502 43 96 79 177
81 179 2 2 21 -8 43 -22 130 -86 304 -117 450 -81 213 53 386 225 431 427 l13
57 157 0 157 0 12 -57 c21 -92 77 -190 156 -269 190 -192 478 -228 708 -87 32
19 59 33 61 32 1 -2 58 -128 126 -279 136 -301 172 -362 259 -443 73 -67 127
-99 227 -134 67 -23 95 -27 184 -27 186 0 331 54 460 168 142 127 204 268 204
461 0 99 -12 174 -123 755 -67 355 -126 681 -131 725 -23 219 -103 380 -265
533 l-85 81 -15 140 c-15 144 -26 180 -67 218 -53 50 -77 53 -390 53 -263 0
-297 -2 -333 -19 -75 -35 -108 -91 -119 -201 -4 -36 -9 -86 -12 -112 l-6 -48
-1008 0 -1008 0 -5 43 c-4 23 -9 74 -13 112 -11 115 -43 171 -119 206 -36 17
-69 19 -335 18 -241 0 -301 -3 -330 -15z m609 -158 c14 -17 27 -146 15 -146
-5 0 -38 10 -74 22 -97 32 -323 32 -433 1 -42 -13 -80 -23 -82 -23 -9 0 7 134
18 148 15 19 540 17 556 -2z m2958 2 c11 -14 27 -148 18 -148 -2 0 -40 10 -82
23 -110 31 -336 31 -433 -1 -36 -12 -69 -22 -74 -22 -12 0 1 129 15 146 16 19
541 21 556 2z m-3093 -273 c225 -48 427 -234 495 -457 26 -86 35 -171 27 -250
l-7 -64 -68 -17 c-208 -54 -378 -246 -415 -469 -4 -20 -14 -39 -24 -43 -38
-16 -217 -17 -291 -1 -189 40 -366 177 -449 346 -56 113 -73 184 -73 305 0
121 17 193 72 301 110 222 335 361 584 363 44 0 111 -6 149 -14z m3023 -19
c102 -33 213 -106 287 -187 61 -68 128 -194 151 -284 20 -78 20 -242 0 -320
-62 -243 -265 -440 -506 -491 -74 -16 -253 -15 -291 1 -10 4 -20 23 -24 43
-37 223 -207 415 -415 469 l-68 17 -7 54 c-15 118 18 273 83 392 56 101 180
218 286 269 115 56 188 71 317 67 79 -3 125 -10 187 -30z m-841 -98 c-143
-195 -189 -322 -190 -527 l-2 -125 -58 -13 c-205 -46 -388 -229 -428 -427
l-11 -56 -157 0 -157 0 -11 56 c-40 198 -222 380 -428 427 l-59 14 3 85 c8
196 -52 372 -194 566 l-16 22 862 0 862 0 -16 -22z m-1465 -824 c82 -25 124
-49 183 -108 165 -166 166 -426 1 -591 -164 -163 -427 -164 -589 -2 -92 91
-132 196 -124 325 15 263 278 450 529 376z m1454 2 c265 -70 391 -359 265
-605 -12 -25 -45 -68 -74 -96 -164 -164 -427 -164 -590 -1 -128 129 -160 320
-80 484 29 59 115 152 166 178 97 51 216 66 313 40z m-2966 -211 c118 -158
292 -268 493 -310 75 -16 228 -19 295 -6 l41 8 11 -43 c6 -23 26 -72 45 -108
l35 -67 -125 -277 c-69 -152 -139 -302 -156 -333 -90 -170 -289 -269 -478
-240 -236 37 -396 194 -423 417 -10 80 -9 89 81 570 51 269 92 494 93 499 0 6
6 1 15 -10 8 -11 41 -56 73 -100z m4442 -384 c91 -486 92 -495 82 -575 -27
-223 -187 -380 -423 -417 -190 -29 -388 70 -478 240 -17 31 -87 181 -156 333
l-125 277 35 67 c19 36 39 85 45 108 l11 43 41 -8 c66 -13 209 -10 289 5 219
42 409 169 534 357 25 39 47 69 49 67 1 -2 44 -225 96 -497z"/>
<path d="M2956 3548 c-12 -16 -16 -47 -16 -113 0 -49 3 -100 6 -112 7 -27 144
-133 171 -133 20 0 136 85 161 117 8 11 12 54 12 123 0 144 5 140 -178 140
-134 0 -142 -1 -156 -22z m224 -132 c0 -48 -3 -57 -31 -80 l-31 -27 -32 24
c-27 22 -31 31 -34 81 l-3 56 66 0 65 0 0 -54z"/>
<path d="M2637 3232 c-14 -15 -17 -42 -17 -153 0 -98 4 -140 14 -154 12 -17
66 -21 243 -15 21 0 123 141 123 169 0 17 -22 52 -60 99 l-60 72 -114 0 c-97
0 -115 -3 -129 -18z m222 -122 c23 -32 22 -40 -12 -77 -16 -18 -31 -23 -69
-23 l-48 0 0 65 0 65 53 0 c48 0 56 -3 76 -30z"/>
<path d="M3352 3243 c-22 -9 -122 -144 -122 -165 0 -27 100 -157 125 -164 11
-3 66 -6 121 -7 73 -1 105 2 117 12 14 11 17 35 17 156 0 180 4 175 -141 174
-57 0 -110 -3 -117 -6z m158 -168 l0 -65 -54 0 c-51 0 -57 3 -81 35 l-27 34
24 30 c21 27 29 30 81 30 l57 1 0 -65z"/>
<path d="M3068 2940 c-24 -16 -61 -44 -83 -63 l-40 -35 0 -117 c0 -150 -6
-145 176 -145 171 0 169 -2 169 143 0 54 -4 107 -10 117 -11 20 -126 113 -152
123 -10 3 -34 -6 -60 -23z m82 -122 c27 -19 30 -28 30 -75 l0 -53 -65 0 -65 0
0 50 c0 43 4 55 28 75 33 30 36 30 72 3z"/>
<path d="M6032 3540 c-187 -45 -207 -310 -30 -385 119 -49 264 38 276 166 13
137 -114 251 -246 219z m116 -135 c52 -60 11 -155 -67 -155 -73 0 -117 68 -86
133 9 19 26 39 38 46 34 17 89 5 115 -24z"/>
<path d="M5722 3230 c-134 -32 -196 -193 -118 -310 31 -48 109 -90 167 -90 53
0 132 44 165 92 25 36 29 51 29 112 0 59 -4 77 -25 106 -13 19 -31 41 -40 48
-47 39 -120 57 -178 42z m108 -127 c35 -31 42 -76 20 -117 -26 -50 -102 -61
-143 -21 -34 35 -41 69 -22 109 29 60 95 73 145 29z"/>
<path d="M6326 3225 c-89 -32 -137 -99 -137 -189 0 -176 197 -268 328 -153 89
79 96 205 15 290 -54 57 -137 78 -206 52z m125 -124 c79 -80 -22 -207 -116
-145 -13 9 -29 31 -35 50 -31 94 81 165 151 95z"/>
<path d="M6016 2915 c-57 -20 -87 -45 -113 -95 -65 -123 8 -270 148 -295 79
-15 174 39 210 120 50 109 -13 241 -132 275 -44 13 -66 12 -113 -5z m123 -121
c26 -21 31 -33 31 -69 0 -36 -5 -48 -31 -69 -52 -44 -128 -25 -148 37 -32 95
72 165 148 101z"/>
<path d="M4200 3060 c-25 -25 -26 -52 -2 -73 22 -20 150 -24 183 -7 27 15 25
64 -3 84 -35 25 -152 22 -178 -4z"/>
<path d="M4822 3064 c-28 -20 -30 -69 -3 -84 11 -5 53 -10 94 -10 59 0 77 4
90 18 22 25 21 48 -3 72 -26 26 -143 29 -178 4z"/>
<path d="M3747 2656 c-86 -36 -141 -86 -179 -164 -30 -59 -33 -76 -33 -152 0
-103 29 -174 97 -241 69 -67 136 -94 238 -94 71 0 94 4 140 26 214 102 265
382 99 548 -95 95 -244 127 -362 77z m231 -110 c137 -71 164 -265 51 -373
-131 -124 -355 -54 -388 122 -36 191 164 341 337 251z"/>
<path d="M5208 2657 c-256 -108 -293 -444 -66 -596 174 -118 407 -53 497 138
22 47 26 70 26 141 0 102 -28 173 -95 240 -93 93 -246 126 -362 77z m251 -122
c147 -98 135 -321 -21 -399 -158 -79 -338 29 -338 204 0 185 205 296 359 195z"/>
</g>
</svg>
