<?xml version="1.0" standalone="no"?>
<!DOCTYPE svg PUBLIC "-//W3C//DTD SVG 20010904//EN"
 "http://www.w3.org/TR/2001/REC-SVG-20010904/DTD/svg10.dtd">
<svg version="1.0" xmlns="http://www.w3.org/2000/svg"
 width="920.000000pt" height="512.000000pt" viewBox="0 0 920.000000 512.000000"
 preserveAspectRatio="xMidYMid meet">
<metadata>
Created by potrace 1.16, written by Peter Selinger 2001-2019
</metadata>
<g transform="translate(0.000000,512.000000) scale(0.100000,-0.100000)"
fill="#000000" stroke="none">
<path d="M4732 5090 c-766 -74 -1454 -485 -1877 -1120 -200 -300 -329 -622
-392 -980 -34 -196 -43 -511 -19 -714 55 -473 248 -935 543 -1301 321 -398
756 -691 1246 -839 259 -78 427 -101 742 -100 211 0 270 4 379 22 380 66 700
190 1003 391 129 87 288 212 288 228 0 5 -395 411 -877 901 l-877 891 307 304
c169 167 593 584 942 927 349 343 635 627 635 630 0 3 -44 46 -97 97 -362 340
-837 568 -1343 644 -150 23 -461 32 -603 19z m464 -855 c64 -28 123 -86 155
-151 20 -41 24 -64 24 -139 0 -78 -4 -97 -27 -140 -31 -60 -87 -114 -148 -146
-38 -20 -60 -24 -135 -24 -78 0 -97 4 -141 27 -67 35 -138 115 -159 179 -89
268 175 509 431 394z"/>
</g>
</svg>
