<svg width="60" height="60" viewBox="0 0 60 60" fill="none" xmlns="http://www.w3.org/2000/svg">
<g id="Property 1=Terror">
<path id="Vector" d="M26.8855 0.318783C24.8336 0.667793 23.5924 1.06334 21.6671 1.94751C13.3075 5.83319 6.39182 14.6516 5.20121 22.9581C3.80794 32.4745 12.2942 49.8554 21.6925 56.7891C24.327 58.7203 27.6455 60 30.0521 60C37.829 60 47.7593 49.3435 52.8764 35.5458C55.3842 28.7982 55.6882 24.1913 53.9656 19.3749C50.5458 9.71886 41.3502 1.45889 32.6359 0.225712C30.4067 -0.100033 29.1401 -0.076767 26.8855 0.318783ZM32.7119 4.73961C35.3972 5.36784 38.8423 7.29904 40.8436 9.32331C42.7182 11.208 44.5167 14.2095 45.226 16.6293C45.454 17.3739 45.7327 17.7229 46.6193 18.2348C48.6712 19.4214 50.5711 22.4229 50.5711 24.4705C50.5711 25.7037 49.8365 27.9373 49.1525 28.7517C48.7979 29.1705 47.5059 30.1478 46.29 30.8923C43.8581 32.4047 42.9968 33.2191 42.1102 34.8478C40.9196 36.9651 39.0703 41.3627 37.2717 46.2722C34.7892 53.0895 33.9786 54.4391 31.9773 55.3232C30.6094 55.9282 29.4948 55.9282 28.1268 55.3232C26.1762 54.4623 25.1376 52.7173 22.9591 46.6212C21.5658 42.7122 19.0832 36.779 18.0193 34.8943C17.1073 33.1958 16.2714 32.4047 13.7888 30.8923C11.2303 29.2869 10.4196 28.3329 10.0143 26.3784C9.35568 23.0977 10.8756 19.7472 13.7128 18.2115C14.6754 17.6996 14.8528 17.4902 15.1061 16.4199C16.474 11.0916 21.4898 6.20547 27.0122 4.83268C29.0641 4.3208 30.7867 4.29753 32.7119 4.73961Z" fill="white"/>
<path id="Vector_2" d="M34.0807 13.7915C33.0675 14.2568 32.7888 15.0247 32.9408 17.142C33.1688 20.5623 35.1194 24.6342 37.2726 26.1233C39.2738 27.5193 41.5031 27.7753 43.1497 26.798C44.5429 25.9837 45.1256 24.9832 44.9229 23.7267C44.7456 22.4703 44.3909 22.1213 42.187 21.0277C40.0591 19.9341 38.7165 18.6777 37.6273 16.6767C36.1327 13.9311 35.2714 13.2331 34.0807 13.7915Z" fill="white"/>
<path id="Vector_3" d="M24.8153 13.9539C24.2073 14.1633 23.5993 14.9078 22.434 16.9554C21.2941 18.9564 19.6222 20.4688 17.4943 21.4228C15.5943 22.2837 15.113 22.8421 15.113 24.2149C15.113 25.7273 17.1649 27.4258 18.9889 27.4258C21.5474 27.4258 24.03 25.6807 25.5752 22.7723C28.0831 18.0955 27.6525 12.9999 24.8153 13.9539Z" fill="white"/>
<path id="Vector_4" d="M29.3411 23.9824C28.4544 25.3785 27.7958 26.5884 27.2638 27.8448C26.3012 30.1483 26.7065 30.5206 28.8091 29.2642L30.025 28.5429L31.393 29.2642C33.2676 30.2414 33.4449 30.2181 33.2676 28.9151C33.0902 27.3329 30.7597 23.2379 30.0504 23.2379C29.9237 23.2379 29.6197 23.5869 29.3411 23.9824Z" fill="white"/>
<path id="Vector_5" d="M27.6437 32.6381C25.7438 33.4059 25.5411 34.3133 26.3517 38.7342C26.7064 40.6421 27.1117 43.5505 27.289 45.2258C27.897 51.508 29.3156 54.2071 31.0889 52.3922C31.8995 51.5313 32.4568 49.3907 32.8368 45.4585C32.9888 43.9228 33.3941 41.2936 33.7487 39.6416C34.4834 36.2678 34.4327 35.0346 33.5967 33.941C32.4821 32.5217 29.5436 31.8702 27.6437 32.6381Z" fill="white"/>
</g>
</svg>
