<svg width="60" height="60" viewBox="0 0 60 60" fill="none" xmlns="http://www.w3.org/2000/svg">
<g id="Property 1=Vestir">
<path id="Vector" d="M29.512 0.0541306C29.0781 0.146397 28.5478 0.558046 28.4321 0.87743C28.3742 1.02648 28.326 1.80009 28.326 2.6021V4.05707L24.9801 4.58228C23.1287 4.87328 21.5763 5.12169 21.5184 5.13588C21.4509 5.15718 21.3738 5.05071 21.3352 4.89457C21.2002 4.32678 20.6506 3.92932 19.8792 3.83705C19.5417 3.80157 19.0499 3.90093 16.649 4.48292C15.0869 4.85908 13.6502 5.24944 13.4573 5.34171C13.0523 5.53334 12.8209 5.81723 12.7245 6.24308L12.657 6.53407L8.94464 7.11606C6.90043 7.43545 5.08765 7.76193 4.90444 7.8258C4.48017 7.99614 4.14269 8.3794 4.06555 8.79105C3.9402 9.42982 4.61517 10.0615 5.52156 10.1609C5.80119 10.1892 6.81365 10.0615 9.27248 9.66404C11.1238 9.37304 12.6666 9.13173 12.7148 9.13173C12.7823 9.13173 12.8113 9.32336 12.9945 11.19C13.2066 13.2695 13.6212 15.9098 14.1612 18.6068C14.7398 21.4883 15.6751 25.3209 15.8294 25.4274C16.0029 25.5623 20.8338 26.1939 23.553 26.4423C26.33 26.6978 27.5642 26.7617 30.0616 26.7617C32.5301 26.7617 33.7547 26.7049 36.5221 26.4494C39.4148 26.1797 44.1204 25.5623 44.2939 25.4274C44.3518 25.3848 44.4964 24.9661 44.6121 24.4976C45.9524 19.1959 46.801 14.5825 47.177 10.6648C47.2638 9.84857 47.341 9.16722 47.3602 9.15302C47.3795 9.13883 48.9512 9.36594 50.8412 9.66404C54.4957 10.2389 54.6789 10.2531 55.296 9.97632C56.3085 9.51499 56.2988 8.32262 55.2864 7.85419C55.0742 7.76193 53.6953 7.51352 51.2172 7.12316L47.4663 6.52698L47.3988 6.23598C47.312 5.85982 47.0999 5.56173 46.7817 5.37719C46.5021 5.21395 40.8323 3.80866 40.4466 3.80866C39.6848 3.80866 38.8941 4.31968 38.7688 4.88747C38.7399 5.04362 38.6724 5.15008 38.6049 5.13588C38.547 5.12169 36.9946 4.87328 35.1529 4.58938L31.8069 4.06417L31.778 2.46725C31.7491 0.93421 31.7394 0.849041 31.5273 0.600632C31.1223 0.125103 30.2545 -0.116209 29.512 0.0541306ZM34.3815 7.06638C36.5703 7.41415 38.3831 7.71225 38.4024 7.72644C38.4602 7.76902 37.9974 9.42272 37.6792 10.317C37.3031 11.3461 36.8403 12.2759 36.2328 13.2127C34.9793 15.1361 32.9255 16.7757 30.8523 17.4996L30.1581 17.748L29.7434 17.599C27.6703 16.8537 25.3658 14.6322 23.8615 11.9352C23.148 10.6577 21.9523 7.76902 22.0873 7.66966C22.1741 7.59869 30.0231 6.38503 30.2063 6.41342C30.3124 6.42761 32.1926 6.7257 34.3815 7.06638Z" fill="white"/>
<path id="Vector_2" d="M15.0819 29.5018C12.7002 35.7333 10.1256 43.0011 8.42858 48.239C6.94363 52.8452 5.71904 57.203 5.79618 57.6289C5.86368 57.9766 6.25902 58.4238 6.64472 58.5657C7.40647 58.8638 13.7898 59.4671 18.9292 59.7368C23.3744 59.9639 31.4741 60.0704 35.7553 59.9497C41.618 59.7794 48.0398 59.3393 52.1379 58.8141C52.9382 58.7148 53.3432 58.6225 53.6132 58.4947C54.0182 58.296 54.3557 57.856 54.3653 57.5224C54.3653 57.1533 53.2275 53.0439 52.2922 50.0843C50.9904 45.9323 48.898 39.8569 46.9888 34.6829C46.0439 32.1136 44.53 28.132 44.5011 28.1036C44.4818 28.0965 43.5175 28.2101 42.3508 28.3662C39.8341 28.7069 36.8931 29.0263 34.6465 29.1966C32.6215 29.3456 28.0317 29.3669 26.0647 29.2321C23.278 29.0405 18.8521 28.5578 16.4897 28.1959C16.104 28.132 15.7472 28.0823 15.7086 28.0823C15.6604 28.0823 15.3808 28.7211 15.0819 29.5018Z" fill="white"/>
</g>
</svg>
